<?xml version="1.0" encoding="UTF-8"?>
<svg id="Layer_1" xmlns="http://www.w3.org/2000/svg" version="1.1" viewBox="0 0 500 500">
  <!-- Generator: Adobe Illustrator 30.7.0, SVG Export Plug-In . SVG Version: 2.1.4 Build 114)  -->
  <defs>
    <style>
      .st0 {
        fill: #ed9a37;
      }
    </style>
  </defs>
  <path class="st0" d="M364.36,414.26l-65.05-107.03c-3.35-5.49-10.49-7.39-16.12-4.2-5.75,3.26-7.78,10.56-4.52,16.31,0,0,12.84,22.67,24.68,43.6-45.06-37.09-78.26-64.41-115.73-95.25,66.13-.04,182.61-.1,182.61-.1,5.98.12,11.88-2.5,15.74-7.62,6.38-8.45,4.7-20.47-3.75-26.85-.25.05-225.1-170.23-225.26-170.03-12.31-8.96-27.88,5.16-20.18,18.3l64.84,106.61c8.57,12.98,27.78,1.83,20.6-12.09,0,0-12.88-22.77-24.86-43.93,45.74,37.35,80.99,66.14,118.26,96.57-70.83-.62-185.25-1.65-185.19-1.58-6.17-.01-12.26,2.79-16.24,8.1-6.69,8.94-4.87,21.61,4.07,28.31,0,0,225.51,168.86,225.51,168.86,12.24,9.55,28.41-4.57,20.59-17.98Z"/>
</svg>