<svg preserveAspectRatio="none" overflow="visible" style="display: block;" width="50" height="66" viewBox="0 0 50 66" fill="none" xmlns="http://www.w3.org/2000/svg">
<path id="Vector" d="M45.4517 62.2944L33.8211 43.4596C33.2246 42.4963 31.9479 42.1568 30.9414 42.7165C29.9162 43.2853 29.5528 44.5788 30.1306 45.588C30.1306 45.588 32.4231 49.5788 34.5386 53.2577C26.4867 46.7348 20.5502 41.9275 13.8496 36.4963C25.6666 36.4963 46.4954 36.478 46.4954 36.478C47.5672 36.4963 48.6202 36.0376 49.3099 35.1385C50.4468 33.6523 50.1486 31.533 48.6389 30.4138C48.5923 30.4138 8.39776 0.459782 8.3698 0.496479C6.17043 -1.0815 3.38393 1.40473 4.7632 3.71665L16.3565 22.478C17.8849 24.7624 21.3238 22.7991 20.0377 20.3496C20.0377 20.3496 17.7358 16.3404 15.5923 12.6157C23.7654 19.1845 30.0747 24.2578 36.7287 29.6064C24.0637 29.4963 3.61691 29.3129 3.62623 29.3312C2.52654 29.3312 1.43618 29.8174 0.718582 30.7532C-0.474299 32.322 -0.148121 34.5605 1.44549 35.7348L41.7612 65.4503C43.9512 67.1292 46.8402 64.643 45.4423 62.2852L45.4517 62.2944Z" fill="#ED9A37"/>
</svg>
